<?xml version="1.0" standalone="no"?>
<!DOCTYPE svg PUBLIC "-//W3C//DTD SVG 20010904//EN"
 "http://www.w3.org/TR/2001/REC-SVG-20010904/DTD/svg10.dtd">
<svg version="1.0" xmlns="http://www.w3.org/2000/svg"
 width="182.000000pt" height="226.000000pt" viewBox="0 0 182.000000 226.000000"
 preserveAspectRatio="xMidYMid meet">

<g transform="translate(0.000000,226.000000) scale(0.100000,-0.100000)"
fill="#000000" stroke="none">
<path d="M0 2225 l0 -35 515 0 515 0 0 -80 0 -80 -225 0 -225 0 0 -55 0 -55
-65 0 -65 0 0 -51 0 -51 -225 4 -225 4 0 -238 0 -238 165 0 165 0 0 -25 c0
-24 3 -25 60 -25 l60 0 0 -60 0 -60 65 0 65 0 0 -38 0 -38 -72 1 c-40 0 -171
-1 -290 -2 l-218 -3 0 -55 0 -55 215 0 c208 0 215 -1 215 -20 0 -17 -7 -20
-50 -20 l-50 0 0 -60 0 -60 -60 0 -60 0 0 -39 c0 -48 -6 -51 -121 -51 l-89 0
0 -55 0 -55 95 0 95 0 0 -125 0 -125 -95 0 -95 0 0 -55 0 -55 225 0 225 0 0
-80 0 -80 290 0 290 0 0 -55 0 -55 60 0 60 0 0 55 0 55 140 0 140 0 0 80 0 80
160 0 160 0 0 -135 0 -135 35 0 35 0 0 1130 0 1130 -910 0 -910 0 0 -35z
m1750 -220 l0 -185 -160 0 -160 0 0 50 0 50 -65 0 -65 0 0 55 0 55 -75 0 -75
0 0 80 0 80 300 0 300 0 0 -185z m-1420 -420 l0 -125 -130 0 -130 0 0 125 0
125 130 0 130 0 0 -125z m1420 0 l0 -125 -100 0 -100 0 0 125 0 125 100 0 100
0 0 -125z m-570 -95 l0 -60 -60 0 -60 0 0 -125 0 -125 60 0 60 0 0 -55 0 -55
-240 0 -240 0 0 55 0 55 60 0 60 0 0 125 0 125 -60 0 -60 0 0 60 0 60 240 0
240 0 0 -60z m-480 -185 l0 -115 -60 0 -60 0 0 115 0 115 60 0 60 0 0 -115z
m600 0 l0 -115 -60 0 -60 0 0 115 0 115 60 0 60 0 0 -115z m450 -80 l0 -125
-225 0 -225 0 0 40 0 40 65 0 65 0 0 60 c0 59 0 60 29 60 57 0 91 12 91 31 0
17 9 19 100 19 l100 0 0 -125z m0 -360 l0 -125 -40 0 -40 0 0 45 0 45 -60 0
-60 0 0 60 0 60 -60 0 c-53 0 -60 2 -60 20 0 19 7 20 160 20 l160 0 0 -125z
m-1170 -220 l0 -65 -125 0 -125 0 0 65 0 65 125 0 125 0 0 -65z m970 0 l0 -65
-125 0 -125 0 0 65 0 65 125 0 125 0 0 -65z m200 -140 l0 -125 -160 0 -160 0
0 40 0 40 120 0 120 0 0 85 0 85 40 0 40 0 0 -125z m-1300 -85 l0 -40 -70 0
-70 0 0 40 0 40 70 0 70 0 0 -40z"/>
</g>
</svg>
